<?xml version="1.0" encoding="utf-8"?>
<svg width="255" height="217" viewBox="0 0 255 217" fill="none" xmlns="http://www.w3.org/2000/svg">
  <g>
    <rect width="255" height="217" />
    <path id="Circle" d="M0 3.5C0 1.567 1.567 0 3.5 0C5.433 0 7 1.567 7 3.5C7 5.433 5.433 7 3.5 7C1.567 7 0 5.433 0 3.5Z" fill="#4169E1" fill-rule="evenodd" />
    <path id="Circle" d="M0 3.5C0 1.567 1.567 0 3.5 0C5.433 0 7 1.567 7 3.5C7 5.433 5.433 7 3.5 7C1.567 7 0 5.433 0 3.5Z" fill="#4169E1" fill-rule="evenodd" transform="translate(31 0)" />
    <path id="Circle" d="M0 3.5C0 1.567 1.567 0 3.5 0C5.433 0 7 1.567 7 3.5C7 5.433 5.433 7 3.5 7C1.567 7 0 5.433 0 3.5Z" fill="#4169E1" fill-rule="evenodd" transform="translate(62 0)" />
    <path id="Circle" d="M0 3.5C0 1.567 1.567 0 3.5 0C5.433 0 7 1.567 7 3.5C7 5.433 5.433 7 3.5 7C1.567 7 0 5.433 0 3.5Z" fill="#4169E1" fill-rule="evenodd" transform="translate(93 0)" />
    <path id="Circle" d="M0 3.5C0 1.567 1.567 0 3.5 0C5.433 0 7 1.567 7 3.5C7 5.433 5.433 7 3.5 7C1.567 7 0 5.433 0 3.5Z" fill="#4169E1" fill-rule="evenodd" transform="translate(124 0)" />
    <path id="Circle" d="M0 3.5C0 1.567 1.567 0 3.5 0C5.433 0 7 1.567 7 3.5C7 5.433 5.433 7 3.5 7C1.567 7 0 5.433 0 3.5Z" fill="#4169E1" fill-rule="evenodd" transform="translate(155 0)" />
    <path id="Circle" d="M0 3.5C0 1.567 1.567 0 3.5 0C5.433 0 7 1.567 7 3.5C7 5.433 5.433 7 3.5 7C1.567 7 0 5.433 0 3.5Z" fill="#4169E1" fill-rule="evenodd" transform="translate(186 0)" />
    <path id="Circle" d="M0 3.5C0 1.567 1.567 0 3.5 0C5.433 0 7 1.567 7 3.5C7 5.433 5.433 7 3.5 7C1.567 7 0 5.433 0 3.5Z" fill="#4169E1" fill-rule="evenodd" transform="translate(217 0)" />
    <path id="Circle" d="M0 3.5C0 1.567 1.567 0 3.5 0C5.433 0 7 1.567 7 3.5C7 5.433 5.433 7 3.5 7C1.567 7 0 5.433 0 3.5Z" fill="#4169E1" fill-rule="evenodd" transform="translate(248 0)" />
    <path id="Circle" d="M0 3.5C0 1.567 1.567 0 3.5 0C5.433 0 7 1.567 7 3.5C7 5.433 5.433 7 3.5 7C1.567 7 0 5.433 0 3.5Z" fill="#4169E1" fill-rule="evenodd" transform="translate(0 30)" />
    <path id="Circle" d="M0 3.5C0 1.567 1.567 0 3.5 0C5.433 0 7 1.567 7 3.5C7 5.433 5.433 7 3.5 7C1.567 7 0 5.433 0 3.5Z" fill="#4169E1" fill-rule="evenodd" transform="translate(31 30)" />
    <path id="Circle" d="M0 3.5C0 1.567 1.567 0 3.5 0C5.433 0 7 1.567 7 3.5C7 5.433 5.433 7 3.5 7C1.567 7 0 5.433 0 3.5Z" fill="#4169E1" fill-rule="evenodd" transform="translate(62 30)" />
    <path id="Circle" d="M0 3.5C0 1.567 1.567 0 3.5 0C5.433 0 7 1.567 7 3.5C7 5.433 5.433 7 3.5 7C1.567 7 0 5.433 0 3.5Z" fill="#4169E1" fill-rule="evenodd" transform="translate(93 30)" />
    <path id="Circle" d="M0 3.5C0 1.567 1.567 0 3.5 0C5.433 0 7 1.567 7 3.5C7 5.433 5.433 7 3.5 7C1.567 7 0 5.433 0 3.5Z" fill="#4169E1" fill-rule="evenodd" transform="translate(124 30)" />
    <path id="Circle" d="M0 3.5C0 1.567 1.567 0 3.5 0C5.433 0 7 1.567 7 3.5C7 5.433 5.433 7 3.5 7C1.567 7 0 5.433 0 3.5Z" fill="#4169E1" fill-rule="evenodd" transform="translate(155 30)" />
    <path id="Circle" d="M0 3.5C0 1.567 1.567 0 3.5 0C5.433 0 7 1.567 7 3.5C7 5.433 5.433 7 3.5 7C1.567 7 0 5.433 0 3.5Z" fill="#4169E1" fill-rule="evenodd" transform="translate(186 30)" />
    <path id="Circle" d="M0 3.5C0 1.567 1.567 0 3.5 0C5.433 0 7 1.567 7 3.5C7 5.433 5.433 7 3.5 7C1.567 7 0 5.433 0 3.5Z" fill="#4169E1" fill-rule="evenodd" transform="translate(217 30)" />
    <path id="Circle" d="M0 3.5C0 1.567 1.567 0 3.5 0C5.433 0 7 1.567 7 3.5C7 5.433 5.433 7 3.5 7C1.567 7 0 5.433 0 3.5Z" fill="#4169E1" fill-rule="evenodd" transform="translate(248 30)" />
    <path id="Circle" d="M0 3.5C0 1.567 1.567 0 3.5 0C5.433 0 7 1.567 7 3.5C7 5.433 5.433 7 3.5 7C1.567 7 0 5.433 0 3.5Z" fill="#4169E1" fill-rule="evenodd" transform="translate(0 60)" />
    <path id="Circle" d="M0 3.5C0 1.567 1.567 0 3.5 0C5.433 0 7 1.567 7 3.5C7 5.433 5.433 7 3.5 7C1.567 7 0 5.433 0 3.5Z" fill="#4169E1" fill-rule="evenodd" transform="translate(31 60)" />
    <path id="Circle" d="M0 3.5C0 1.567 1.567 0 3.5 0C5.433 0 7 1.567 7 3.5C7 5.433 5.433 7 3.5 7C1.567 7 0 5.433 0 3.5Z" fill="#4169E1" fill-rule="evenodd" transform="translate(62 60)" />
    <path id="Circle" d="M0 3.5C0 1.567 1.567 0 3.5 0C5.433 0 7 1.567 7 3.5C7 5.433 5.433 7 3.5 7C1.567 7 0 5.433 0 3.5Z" fill="#4169E1" fill-rule="evenodd" transform="translate(93 60)" />
    <path id="Circle" d="M0 3.5C0 1.567 1.567 0 3.5 0C5.433 0 7 1.567 7 3.5C7 5.433 5.433 7 3.5 7C1.567 7 0 5.433 0 3.5Z" fill="#4169E1" fill-rule="evenodd" transform="translate(124 60)" />
    <path id="Circle" d="M0 3.5C0 1.567 1.567 0 3.5 0C5.433 0 7 1.567 7 3.5C7 5.433 5.433 7 3.5 7C1.567 7 0 5.433 0 3.5Z" fill="#4169E1" fill-rule="evenodd" transform="translate(155 60)" />
    <path id="Circle" d="M0 3.5C0 1.567 1.567 0 3.5 0C5.433 0 7 1.567 7 3.5C7 5.433 5.433 7 3.5 7C1.567 7 0 5.433 0 3.5Z" fill="#4169E1" fill-rule="evenodd" transform="translate(186 60)" />
    <path id="Circle" d="M0 3.5C0 1.567 1.567 0 3.5 0C5.433 0 7 1.567 7 3.5C7 5.433 5.433 7 3.5 7C1.567 7 0 5.433 0 3.5Z" fill="#4169E1" fill-rule="evenodd" transform="translate(217 60)" />
    <path id="Circle" d="M0 3.5C0 1.567 1.567 0 3.5 0C5.433 0 7 1.567 7 3.5C7 5.433 5.433 7 3.5 7C1.567 7 0 5.433 0 3.5Z" fill="#4169E1" fill-rule="evenodd" transform="translate(248 60)" />
    <path id="Circle" d="M0 3.5C0 1.567 1.567 0 3.5 0C5.433 0 7 1.567 7 3.5C7 5.433 5.433 7 3.5 7C1.567 7 0 5.433 0 3.5Z" fill="#4169E1" fill-rule="evenodd" transform="translate(0 90)" />
    <path id="Circle" d="M0 3.5C0 1.567 1.567 0 3.5 0C5.433 0 7 1.567 7 3.5C7 5.433 5.433 7 3.5 7C1.567 7 0 5.433 0 3.5Z" fill="#4169E1" fill-rule="evenodd" transform="translate(31 90)" />
    <path id="Circle" d="M0 3.5C0 1.567 1.567 0 3.5 0C5.433 0 7 1.567 7 3.5C7 5.433 5.433 7 3.5 7C1.567 7 0 5.433 0 3.5Z" fill="#4169E1" fill-rule="evenodd" transform="translate(62 90)" />
    <path id="Circle" d="M0 3.5C0 1.567 1.567 0 3.5 0C5.433 0 7 1.567 7 3.5C7 5.433 5.433 7 3.5 7C1.567 7 0 5.433 0 3.5Z" fill="#4169E1" fill-rule="evenodd" transform="translate(93 90)" />
    <path id="Circle" d="M0 3.5C0 1.567 1.567 0 3.5 0C5.433 0 7 1.567 7 3.5C7 5.433 5.433 7 3.5 7C1.567 7 0 5.433 0 3.5Z" fill="#4169E1" fill-rule="evenodd" transform="translate(124 90)" />
    <path id="Circle" d="M0 3.5C0 1.567 1.567 0 3.5 0C5.433 0 7 1.567 7 3.5C7 5.433 5.433 7 3.5 7C1.567 7 0 5.433 0 3.5Z" fill="#4169E1" fill-rule="evenodd" transform="translate(155 90)" />
    <path id="Circle" d="M0 3.5C0 1.567 1.567 0 3.5 0C5.433 0 7 1.567 7 3.5C7 5.433 5.433 7 3.5 7C1.567 7 0 5.433 0 3.5Z" fill="#4169E1" fill-rule="evenodd" transform="translate(186 90)" />
    <path id="Circle" d="M0 3.5C0 1.567 1.567 0 3.5 0C5.433 0 7 1.567 7 3.5C7 5.433 5.433 7 3.5 7C1.567 7 0 5.433 0 3.5Z" fill="#4169E1" fill-rule="evenodd" transform="translate(217 90)" />
    <path id="Circle" d="M0 3.5C0 1.567 1.567 0 3.5 0C5.433 0 7 1.567 7 3.5C7 5.433 5.433 7 3.5 7C1.567 7 0 5.433 0 3.5Z" fill="#4169E1" fill-rule="evenodd" transform="translate(248 90)" />
    <path id="Circle" d="M0 3.5C0 1.567 1.567 0 3.5 0C5.433 0 7 1.567 7 3.5C7 5.433 5.433 7 3.5 7C1.567 7 0 5.433 0 3.5Z" fill="#4169E1" fill-rule="evenodd" transform="translate(0 120)" />
    <path id="Circle" d="M0 3.5C0 1.567 1.567 0 3.5 0C5.433 0 7 1.567 7 3.5C7 5.433 5.433 7 3.5 7C1.567 7 0 5.433 0 3.5Z" fill="#4169E1" fill-rule="evenodd" transform="translate(31 120)" />
    <path id="Circle" d="M0 3.5C0 1.567 1.567 0 3.5 0C5.433 0 7 1.567 7 3.5C7 5.433 5.433 7 3.5 7C1.567 7 0 5.433 0 3.5Z" fill="#4169E1" fill-rule="evenodd" transform="translate(62 120)" />
    <path id="Circle" d="M0 3.5C0 1.567 1.567 0 3.5 0C5.433 0 7 1.567 7 3.5C7 5.433 5.433 7 3.5 7C1.567 7 0 5.433 0 3.5Z" fill="#4169E1" fill-rule="evenodd" transform="translate(93 120)" />
    <path id="Circle" d="M0 3.5C0 1.567 1.567 0 3.5 0C5.433 0 7 1.567 7 3.5C7 5.433 5.433 7 3.5 7C1.567 7 0 5.433 0 3.5Z" fill="#4169E1" fill-rule="evenodd" transform="translate(124 120)" />
    <path id="Circle" d="M0 3.5C0 1.567 1.567 0 3.5 0C5.433 0 7 1.567 7 3.5C7 5.433 5.433 7 3.5 7C1.567 7 0 5.433 0 3.5Z" fill="#4169E1" fill-rule="evenodd" transform="translate(155 120)" />
    <path id="Circle" d="M0 3.5C0 1.567 1.567 0 3.5 0C5.433 0 7 1.567 7 3.5C7 5.433 5.433 7 3.5 7C1.567 7 0 5.433 0 3.5Z" fill="#4169E1" fill-rule="evenodd" transform="translate(186 120)" />
    <path id="Circle" d="M0 3.5C0 1.567 1.567 0 3.5 0C5.433 0 7 1.567 7 3.5C7 5.433 5.433 7 3.5 7C1.567 7 0 5.433 0 3.5Z" fill="#4169E1" fill-rule="evenodd" transform="translate(217 120)" />
    <path id="Circle" d="M0 3.5C0 1.567 1.567 0 3.5 0C5.433 0 7 1.567 7 3.5C7 5.433 5.433 7 3.5 7C1.567 7 0 5.433 0 3.5Z" fill="#4169E1" fill-rule="evenodd" transform="translate(248 120)" />
    <path id="Circle" d="M0 3.5C0 1.567 1.567 0 3.5 0C5.433 0 7 1.567 7 3.5C7 5.433 5.433 7 3.5 7C1.567 7 0 5.433 0 3.5Z" fill="#4169E1" fill-rule="evenodd" transform="translate(0 150)" />
    <path id="Circle" d="M0 3.5C0 1.567 1.567 0 3.5 0C5.433 0 7 1.567 7 3.5C7 5.433 5.433 7 3.5 7C1.567 7 0 5.433 0 3.5Z" fill="#4169E1" fill-rule="evenodd" transform="translate(31 150)" />
    <path id="Circle" d="M0 3.5C0 1.567 1.567 0 3.5 0C5.433 0 7 1.567 7 3.5C7 5.433 5.433 7 3.5 7C1.567 7 0 5.433 0 3.5Z" fill="#4169E1" fill-rule="evenodd" transform="translate(62 150)" />
    <path id="Circle" d="M0 3.5C0 1.567 1.567 0 3.5 0C5.433 0 7 1.567 7 3.5C7 5.433 5.433 7 3.5 7C1.567 7 0 5.433 0 3.5Z" fill="#4169E1" fill-rule="evenodd" transform="translate(93 150)" />
    <path id="Circle" d="M0 3.5C0 1.567 1.567 0 3.5 0C5.433 0 7 1.567 7 3.5C7 5.433 5.433 7 3.5 7C1.567 7 0 5.433 0 3.5Z" fill="#4169E1" fill-rule="evenodd" transform="translate(124 150)" />
    <path id="Circle" d="M0 3.5C0 1.567 1.567 0 3.5 0C5.433 0 7 1.567 7 3.5C7 5.433 5.433 7 3.5 7C1.567 7 0 5.433 0 3.5Z" fill="#4169E1" fill-rule="evenodd" transform="translate(155 150)" />
    <path id="Circle" d="M0 3.5C0 1.567 1.567 0 3.5 0C5.433 0 7 1.567 7 3.5C7 5.433 5.433 7 3.5 7C1.567 7 0 5.433 0 3.5Z" fill="#4169E1" fill-rule="evenodd" transform="translate(186 150)" />
    <path id="Circle" d="M0 3.5C0 1.567 1.567 0 3.5 0C5.433 0 7 1.567 7 3.5C7 5.433 5.433 7 3.5 7C1.567 7 0 5.433 0 3.5Z" fill="#4169E1" fill-rule="evenodd" transform="translate(217 150)" />
    <path id="Circle" d="M0 3.5C0 1.567 1.567 0 3.5 0C5.433 0 7 1.567 7 3.5C7 5.433 5.433 7 3.5 7C1.567 7 0 5.433 0 3.5Z" fill="#4169E1" fill-rule="evenodd" transform="translate(248 150)" />
    <path id="Circle" d="M0 3.5C0 1.567 1.567 0 3.5 0C5.433 0 7 1.567 7 3.5C7 5.433 5.433 7 3.5 7C1.567 7 0 5.433 0 3.5Z" fill="#4169E1" fill-rule="evenodd" transform="translate(0 180)" />
    <path id="Circle" d="M0 3.5C0 1.567 1.567 0 3.5 0C5.433 0 7 1.567 7 3.5C7 5.433 5.433 7 3.5 7C1.567 7 0 5.433 0 3.5Z" fill="#4169E1" fill-rule="evenodd" transform="translate(31 180)" />
    <path id="Circle" d="M0 3.5C0 1.567 1.567 0 3.5 0C5.433 0 7 1.567 7 3.5C7 5.433 5.433 7 3.5 7C1.567 7 0 5.433 0 3.5Z" fill="#4169E1" fill-rule="evenodd" transform="translate(62 180)" />
    <path id="Circle" d="M0 3.5C0 1.567 1.567 0 3.5 0C5.433 0 7 1.567 7 3.5C7 5.433 5.433 7 3.5 7C1.567 7 0 5.433 0 3.5Z" fill="#4169E1" fill-rule="evenodd" transform="translate(93 180)" />
    <path id="Circle" d="M0 3.5C0 1.567 1.567 0 3.5 0C5.433 0 7 1.567 7 3.5C7 5.433 5.433 7 3.5 7C1.567 7 0 5.433 0 3.5Z" fill="#4169E1" fill-rule="evenodd" transform="translate(124 180)" />
    <path id="Circle" d="M0 3.5C0 1.567 1.567 0 3.5 0C5.433 0 7 1.567 7 3.5C7 5.433 5.433 7 3.5 7C1.567 7 0 5.433 0 3.5Z" fill="#4169E1" fill-rule="evenodd" transform="translate(155 180)" />
    <path id="Circle" d="M0 3.5C0 1.567 1.567 0 3.5 0C5.433 0 7 1.567 7 3.5C7 5.433 5.433 7 3.5 7C1.567 7 0 5.433 0 3.5Z" fill="#4169E1" fill-rule="evenodd" transform="translate(186 180)" />
    <path id="Circle" d="M0 3.5C0 1.567 1.567 0 3.5 0C5.433 0 7 1.567 7 3.5C7 5.433 5.433 7 3.5 7C1.567 7 0 5.433 0 3.5Z" fill="#4169E1" fill-rule="evenodd" transform="translate(217 180)" />
    <path id="Circle" d="M0 3.5C0 1.567 1.567 0 3.5 0C5.433 0 7 1.567 7 3.5C7 5.433 5.433 7 3.5 7C1.567 7 0 5.433 0 3.5Z" fill="#4169E1" fill-rule="evenodd" transform="translate(248 180)" />
    <path id="Circle" d="M0 3.5C0 1.567 1.567 0 3.5 0C5.433 0 7 1.567 7 3.5C7 5.433 5.433 7 3.5 7C1.567 7 0 5.433 0 3.5Z" fill="#4169E1" fill-rule="evenodd" transform="translate(0 210)" />
    <path id="Circle" d="M0 3.5C0 1.567 1.567 0 3.5 0C5.433 0 7 1.567 7 3.5C7 5.433 5.433 7 3.5 7C1.567 7 0 5.433 0 3.5Z" fill="#4169E1" fill-rule="evenodd" transform="translate(31 210)" />
    <path id="Circle" d="M0 3.5C0 1.567 1.567 0 3.5 0C5.433 0 7 1.567 7 3.5C7 5.433 5.433 7 3.5 7C1.567 7 0 5.433 0 3.5Z" fill="#4169E1" fill-rule="evenodd" transform="translate(62 210)" />
    <path id="Circle" d="M0 3.5C0 1.567 1.567 0 3.5 0C5.433 0 7 1.567 7 3.5C7 5.433 5.433 7 3.5 7C1.567 7 0 5.433 0 3.5Z" fill="#4169E1" fill-rule="evenodd" transform="translate(93 210)" />
    <path id="Circle" d="M0 3.5C0 1.567 1.567 0 3.5 0C5.433 0 7 1.567 7 3.5C7 5.433 5.433 7 3.5 7C1.567 7 0 5.433 0 3.5Z" fill="#4169E1" fill-rule="evenodd" transform="translate(124 210)" />
    <path id="Circle" d="M0 3.5C0 1.567 1.567 0 3.5 0C5.433 0 7 1.567 7 3.5C7 5.433 5.433 7 3.5 7C1.567 7 0 5.433 0 3.5Z" fill="#4169E1" fill-rule="evenodd" transform="translate(155 210)" />
    <path id="Circle" d="M0 3.5C0 1.567 1.567 0 3.5 0C5.433 0 7 1.567 7 3.5C7 5.433 5.433 7 3.5 7C1.567 7 0 5.433 0 3.5Z" fill="#4169E1" fill-rule="evenodd" transform="translate(186 210)" />
    <path id="Circle" d="M0 3.5C0 1.567 1.567 0 3.5 0C5.433 0 7 1.567 7 3.5C7 5.433 5.433 7 3.5 7C1.567 7 0 5.433 0 3.5Z" fill="#4169E1" fill-rule="evenodd" transform="translate(217 210)" />
    <path id="Circle" d="M0 3.5C0 1.567 1.567 0 3.5 0C5.433 0 7 1.567 7 3.5C7 5.433 5.433 7 3.5 7C1.567 7 0 5.433 0 3.5Z" fill="#4169E1" fill-rule="evenodd" transform="translate(248 210)" />
  </g>
</svg>